# xmcd
#
# Track frame offsets: 
#        150
#        11427
#        24104
#        32826
#        44284
#        55187
#        67402
#        79169
#        90400
#        101087
#        111298
#        120752
#        131960
#        143652
#        152147
#        165946
#        180003
#        190990
#        200358
#        210581
#        223255
#        234533
#        248802
#        258445
#        269713
#        279959
#
# Disc length: 3891 seconds
#
# Revision: 0
# Processed by: cddbd v1.5.2PL0 Copyright (c) Steve Scherf et al.
# Submitted via: ExactAudioCopy v0.99pb5
#
DISCID=690f311a
DTITLE=Various Artist - Where the Action Is! Los Angeles Nuggets 1965-1968 - 
DTITLE=Disc 2
DYEAR=1900
DGENRE=
TTITLE0=01 - Jump, Jive and Harmonize - Thee Midniters
TTITLE1=02 - Back Up - The Light
TTITLE2=03 - To Die Alone - The Bush
TTITLE3=04 - Get On This Plane - The Premiers
TTITLE4=05 - Little Girl, Little Boy - The Odyssey
TTITLE5=06 - Hideaway - The Electric Prunes
TTITLE6=07 - Listen, Listen! - The Merry-Go-Round
TTITLE7=08 - She Done Moved - The Spats
TTITLE8=09 - Grim Reaper Of Love - The Turtles
TTITLE9=10 - See If I Care - Ken and The 4th Dimension
TTITLE10=11 - He's Not There Anymore - The Chymes
TTITLE11=12 - Back Seat '38 Dodge - Opus 1
TTITLE12=13 - Eternal Prison - The Humane Society
TTITLE13=14 - Revenge - The Others
TTITLE14=15 - Come Alive - Things To Come
TTITLE15=16 - Acid Head - The Velvet Illusions
TTITLE16=17 - Guaranteed Love - Limey and The Yanks
TTITLE17=18 - Love's The Thing - The Romancers (aka The Smoke Rings)
TTITLE18=19 - Underground Lady - Kim Fowley
TTITLE19=20 - Pretty Little Thing - The Deepest Blue
TTITLE20=21 - You're Wishin' I Was Someone Else - The Whatt Four
TTITLE21=22 - Hippy Elevator Operator - The W.C. Fields Memorial Elect
TTITLE21=ric String Band
TTITLE22=23 - That's For Sure - The Mustangs
TTITLE23=24 - Tomorrow's Girl - Fapardokly (Merrell and The Exiles)
TTITLE24=25 - Everything's There - The Hysterics
TTITLE25=26 - Our Time Is Running Out - The Yellow Payges
EXTD=
EXTT0=
EXTT1=
EXTT2=
EXTT3=
EXTT4=
EXTT5=
EXTT6=
EXTT7=
EXTT8=
EXTT9=
EXTT10=
EXTT11=
EXTT12=
EXTT13=
EXTT14=
EXTT15=
EXTT16=
EXTT17=
EXTT18=
EXTT19=
EXTT20=
EXTT21=
EXTT22=
EXTT23=
EXTT24=
EXTT25=
PLAYORDER=
